HIERARCHY
ROOT Hips
{
	OFFSET -3.958830 18.904000 13.208200
	CHANNELS 6 Xposition Yposition Zposition Zrotation Yrotation Xrotation 
	JOINT LHipJoint
	{
		OFFSET 0.000000 0.000000 0.000000
		CHANNELS 3 Zrotation Yrotation Xrotation
		JOINT LeftUpLeg
		{
			OFFSET 1.800000 -1.400000 0.085000
			CHANNELS 3 Zrotation Yrotation Xrotation
			JOINT LeftLeg
			{
				OFFSET 2.215000 -6.000000 0.000000
				CHANNELS 3 Zrotation Yrotation Xrotation
				JOINT LeftFoot
				{
					OFFSET 2.500000 -6.900000 0.000000
					CHANNELS 3 Zrotation Yrotation Xrotation
					JOINT LeftToeBase
					{
						OFFSET 0.200000 -0.500000 1.950000
						CHANNELS 3 Zrotation Yrotation Xrotation
						End Site
						{
							OFFSET 0.000000 0.000000 0.000000
						}
					}
				}
			}
		}
	}
	JOINT RHipJoint
	{
		OFFSET 0.000000 0.000000 0.000000
		CHANNELS 3 Zrotation Yrotation Xrotation
		JOINT RightUpLeg
		{
			OFFSET -1.800000 -1.400000 0.085000
			CHANNELS 3 Zrotation Yrotation Xrotation
			JOINT RightLeg
			{
				OFFSET -2.215000 -6.000000 0.000000
				CHANNELS 3 Zrotation Yrotation Xrotation
				JOINT RightFoot
				{
					OFFSET -2.500000 -6.900000 0.000000
					CHANNELS 3 Zrotation Yrotation Xrotation
					JOINT RightToeBase
					{
						OFFSET -0.200000 -0.500000 1.950000
						CHANNELS 3 Zrotation Yrotation Xrotation
						End Site
						{
							OFFSET 0.000000 0.000000 0.000000
						}
					}
				}
			}
		}
	}
	JOINT LowerBack
	{
		OFFSET 0.000000 0.000000 0.000000
		CHANNELS 3 Zrotation Yrotation Xrotation
		JOINT Spine
		{
			OFFSET -0.087000 1.940000 -0.288900
			CHANNELS 3 Zrotation Yrotation Xrotation
			JOINT Spine1
			{
				OFFSET 0.000000 1.950000 0.060000
				CHANNELS 3 Zrotation Yrotation Xrotation
				JOINT Neck
				{
					OFFSET 0.000000 0.000000 0.000000
					CHANNELS 3 Zrotation Yrotation Xrotation
					JOINT Neck1
					{
						OFFSET 0.000000 1.600000 0.340000
						CHANNELS 3 Zrotation Yrotation Xrotation
						JOINT Head
						{
							OFFSET 0.000000 1.667000 -0.240000
							CHANNELS 3 Zrotation Yrotation Xrotation
							End Site
							{
								OFFSET 0.000000 0.000000 0.000000
							}
						}
					}
				}
				JOINT LeftShoulder
				{
					OFFSET 0.000000 0.000000 0.000000
					CHANNELS 3 Zrotation Yrotation Xrotation
					JOINT LeftArm
					{
						OFFSET 2.700000 1.550000 -0.730000
						CHANNELS 3 Zrotation Yrotation Xrotation
						JOINT LeftForeArm
						{
							OFFSET 5.450000 0.000000 0.000000
							CHANNELS 3 Zrotation Yrotation Xrotation
							JOINT LeftHand
							{
								OFFSET 3.450000 0.000000 0.000000
								CHANNELS 3 Zrotation Yrotation Xrotation
								JOINT LeftHandIndex1
								{
									OFFSET 0.750000 0.000000 0.000000
									CHANNELS 3 Zrotation Yrotation Xrotation
									End Site
									{
										OFFSET 0.000000 0.000000 0.000000
									}
								}
							}
						}
					}
				}
				JOINT RightShoulder
				{
					OFFSET 0.000000 0.000000 0.000000
					CHANNELS 3 Zrotation Yrotation Xrotation
					JOINT RightArm
					{
						OFFSET -2.700000 1.550000 -0.730000
						CHANNELS 3 Zrotation Yrotation Xrotation
						JOINT RightForeArm
						{
							OFFSET -5.450000 0.000000 0.000000
							CHANNELS 3 Zrotation Yrotation Xrotation
							JOINT RightHand
							{
								OFFSET -3.450000 0.000000 0.000000
								CHANNELS 3 Zrotation Yrotation Xrotation
								JOINT RightHandIndex1
								{
									OFFSET -0.750000 0.000000 0.000000
									CHANNELS 3 Zrotation Yrotation Xrotation
									End Site
									{
										OFFSET 0.000000 0.000000 0.000000
									}
								}
							}
						}
					}
				}
			}
		}
	}
}
MOTION
Frames: 4
Frame Time: 0.016667
-0.699000 15.310390 -3.991550 4.826854 3.760529 -7.688124 -15.882392 9.930649 6.783130 44.670495 -2.382275 -36.499462 -30.929182 29.308469 49.059347 1.292843 13.360084 -0.391599 1.157910 1.030870 1.055640 18.493344 -6.933076 3.480105 -38.210984 0.581309 -45.280804 -6.706583 -17.142615 75.206440 -2.522428 -11.624379 -0.011285 0.353550 -0.669580 0.645510 -3.010327 -3.845844 -10.467336 32.453721 -14.269007 47.904908 -8.563993 -1.212018 6.718113 10.397711 1.071504 -15.195881 -2.805381 -1.531085 67.417726 -8.476930 1.842470 -33.838120 -39.302209 -30.981575 7.055740 -31.698795 -17.319994 -8.190847 -134.573420 -58.843689 89.249839 -3.210725 3.474673 1.028410 -0.511490 0.998010 0.103860 18.100342 34.618707 8.891141 39.234486 17.440725 -15.247175 57.599217 43.502839 12.636797 2.216255 -1.807963 0.370700 -0.113870 -0.395810 -0.213870 
-0.666530 15.294800 -3.968190 4.784729 2.567236 -9.153935 -15.868927 10.081753 6.702163 44.975922 -3.074619 -34.469501 -31.193159 29.586262 49.453033 1.286060 13.479751 -0.411733 1.130200 0.976030 1.035720 18.476514 -7.089355 3.344827 -37.462062 -0.014444 -44.680896 -8.429680 -15.891717 75.334592 -2.497731 -11.498157 0.040015 0.341690 -0.625170 0.625280 -3.030399 -3.922385 -10.364958 33.455552 -15.422659 47.927392 -8.890932 -1.811742 6.691047 10.058336 1.506799 -16.107697 -2.452554 -1.603907 70.257837 -6.902920 1.408440 -32.587300 -37.521318 -32.541995 7.728827 -30.920449 -17.036711 -9.029086 -133.559519 -59.830592 88.374017 -3.222736 3.378388 1.071460 -0.503110 0.977900 0.106620 16.983664 35.438882 9.194306 39.687000 17.161811 -15.764297 60.149913 43.525712 13.106617 2.193939 -1.771143 0.319120 -0.058450 -0.365290 -0.228770 
-0.631880 15.277090 -3.893040 4.784481 0.662955 -10.091130 -15.839580 10.205672 6.581627 45.376981 -4.126516 -31.831212 -31.902774 29.845580 49.397735 1.364226 13.508201 -0.390046 1.117730 0.981110 1.030910 18.475107 -7.276802 3.222720 -36.045231 -1.393806 -44.926253 -11.452603 -13.916255 75.169616 -2.467647 -11.296985 0.135941 0.328720 -0.603930 0.609240 -3.095093 -3.921355 -10.242985 35.703376 -16.874835 46.368454 -9.243246 -2.744679 6.829509 9.776326 2.796291 -16.981751 0.320505 -2.964414 72.885456 -6.556450 1.540060 -30.906090 -35.445918 -34.267486 8.617235 -29.486298 -16.698102 -9.886277 -131.323814 -61.350996 87.039001 -3.233170 3.286283 1.049570 -0.480130 0.980710 0.121470 15.353256 35.687601 9.433489 42.321550 17.086456 -16.599153 64.800438 45.333193 14.877365 2.226426 -1.783779 0.324480 -0.030480 -0.380690 -0.214510 
-0.613110 15.273280 -3.812960 4.596808 -1.129564 -10.564498 -15.815438 10.294172 6.450628 45.716451 -4.952883 -29.773736 -31.678203 29.840095 49.689795 1.478227 13.482189 -0.356766 1.147270 1.032540 1.039260 18.478706 -7.386027 3.190448 -34.575805 -2.527484 -45.755334 -13.761619 -12.579951 75.268671 -2.476980 -11.241048 0.178709 0.321560 -0.605590 0.628860 -3.150192 -3.932420 -10.169123 37.547513 -17.994945 44.459042 -9.342144 -3.554636 6.695041 9.260758 3.903445 -17.688996 2.911683 -4.453785 73.876475 -5.675310 1.741650 -28.834640 -34.280853 -35.855032 9.187981 -27.040259 -16.865361 -9.890404 -129.444966 -61.299350 84.936496 -3.197756 3.355798 0.989930 -0.463980 0.997790 0.158320 15.029971 35.920601 9.573036 44.307825 17.204202 -16.877320 65.238927 45.964810 14.982803 2.259933 -1.843553 0.386470 -0.068720 -0.435950 -0.175110 
